<svg width="1920" height="1080" viewBox="0 0 1920 1080" fill="none" xmlns="http://www.w3.org/2000/svg">
<g clip-path="url(#clip0_2001_2)">
<rect width="1920" height="1080" fill="#16D1D1"/>
<path d="M741 1088.61C987.486 922.528 2290.54 630.804 1925.5 1088.61H741Z" fill="#58BC35" stroke="#58BC35"/>
<g filter="url(#filter0_d_2001_2)">
<path d="M-34.7279 1096C-413.436 511.951 1123.22 791.765 1724 1096H-34.7279Z" fill="#3C7817"/>
<path d="M-34.7279 1096C-413.436 511.951 1123.22 791.765 1724 1096H-34.7279Z" stroke="#3C7817"/>
</g>
<path d="M636.955 120.819C636.551 120.819 636.148 120.819 635.745 120.819C618.404 120.819 605.097 126.639 593.268 139.413V128.768V126.497H591.117H554.151H552V128.768V304.058V306.329H554.151H593.94H596.09V304.058V210.381C596.09 197.181 599.317 166.381 628.755 166.381C655.639 166.381 659.538 195.477 659.538 212.794V303.916V306.187H661.688H701.477H703.628V303.916V207.116C703.628 174.755 698.52 157.155 684.809 142.252C672.308 128.768 655.236 121.103 636.955 120.819Z" fill="#233949"/>
<path d="M805.52 120.819C755.918 120.819 715.592 164.252 715.592 217.619C715.592 269.568 755.784 311.865 805.251 311.865C841.008 311.865 876.898 286.458 886.98 253.955L887.921 250.974H884.964H840.873H839.932L839.26 251.684C831.598 260.626 818.156 266.161 804.041 266.161C785.491 266.161 769.361 254.664 763.043 237.206H888.862H890.744L890.878 235.219C891.147 232.948 891.416 230.819 891.819 228.548C892.357 224.432 893.029 220.316 893.029 214.781C893.029 163.826 852.971 120.819 805.52 120.819ZM762.371 195.477C768.957 178.445 786.567 166.381 805.386 166.381C824.474 166.381 841.411 178.161 847.594 195.477H762.371Z" fill="#233949"/>
<path d="M1015.49 126.497H1013.34V128.768V219.18C1013.34 250.406 1002.45 266.303 981.075 266.303C952.712 266.303 949.621 235.787 949.621 222.729V128.768V126.497H947.47H907.681H905.53V128.768V235.645C905.53 251.542 908.219 265.451 913.327 274.393C926.635 298.239 949.486 311.864 975.967 311.864C994.383 311.864 1006.88 305.903 1016.7 291.993V303.916V306.187H1018.85H1055.41H1057.56V303.916V128.768V126.497H1055.41H1015.49Z" fill="#233949"/>
<path d="M1116.84 138.135V128.768V126.497H1114.69H1078.4H1076.25V128.768V303.916V306.187H1078.4H1118.19H1120.34V303.916V209.387C1120.07 194.2 1120.61 182.703 1130.96 173.761C1137 168.935 1145.34 166.097 1153.81 166.097H1155.96V163.826V122.948V120.819H1153.81C1136.33 120.819 1126.12 125.361 1116.84 138.135Z" fill="#233949"/>
<path d="M1324.25 269.426C1345.76 251.116 1358.67 222.019 1358.67 191.787C1358.67 143.955 1325.46 93 1263.9 93C1232.44 93 1205.56 106.484 1188.09 131.181C1187.28 132.316 1186.47 133.594 1185.67 134.729C1176.79 148.923 1173.03 166.523 1174.24 186.961C1174.37 188.665 1174.64 190.368 1174.91 192.213C1175.45 195.477 1175.99 198.884 1175.58 202.148C1175.32 205.271 1173.97 208.535 1171.55 212.51C1170.34 214.497 1169 216.342 1167.92 218.045L1167.25 219.181C1166.58 220.174 1165.64 221.31 1164.7 222.587C1161.47 226.419 1157.57 231.245 1157.84 236.781C1158.11 242.742 1162.14 244.729 1165.37 246.29C1167.79 247.426 1169.8 248.419 1170.48 250.548C1171.42 253.387 1170.61 256.226 1169.94 258.923C1169.27 261.619 1168.46 264.174 1169.8 266.303C1170.48 267.581 1171.82 268.432 1173.84 269C1173.7 269.142 1173.57 269.284 1173.43 269.426C1172.36 270.703 1170.88 272.265 1171.15 275.387C1171.42 277.232 1172.76 278.51 1174.11 279.929C1175.72 281.49 1177.33 283.052 1177.73 285.323C1178.41 288.871 1178.27 292.419 1178.14 295.4C1178 301.361 1177.73 306.471 1182.84 309.877C1186.34 312.29 1190.77 313.284 1197.23 313.284C1200.05 313.284 1202.87 313.142 1205.69 312.858C1208.52 312.716 1211.61 312.432 1214.43 312.432C1219.81 312.432 1223.84 313.142 1227.2 314.703C1230.56 319.245 1233.52 325.916 1235.67 333.723L1235.94 334.574H1328.56L1328.15 333.155C1319.82 305.619 1318.34 284.755 1323.45 271.413C1323.45 270.845 1323.85 270.135 1324.25 269.426ZM1263.76 247.142C1240.24 247.142 1220.62 231.103 1214.7 206.974H1238.76L1243.87 186.252L1252.61 215.774L1261.75 197.323L1275.46 232.523L1287.83 206.974H1312.43C1306.65 231.103 1287.29 247.142 1263.76 247.142ZM1314.17 195.903H1281.51L1276.54 206.123L1262.96 171.065L1255.03 187.103L1242.8 146.226L1230.7 195.903H1212.95C1212.82 194.626 1212.82 193.206 1212.82 191.645C1212.82 160.561 1235.13 136.148 1263.76 136.148C1292.53 136.148 1314.31 159.994 1314.31 191.645C1314.44 193.206 1314.31 194.484 1314.17 195.903Z" fill="#233949"/>
<path d="M1350.33 325.206C1350.33 330.6 1346.17 335 1340.92 335C1335.68 335 1331.51 330.742 1331.51 325.206C1331.51 319.813 1335.68 315.555 1341.06 315.555C1346.17 315.555 1350.33 319.813 1350.33 325.206ZM1333.8 325.206C1333.8 329.606 1336.89 333.013 1340.92 333.013C1344.96 333.013 1347.91 329.606 1347.91 325.348C1347.91 321.09 1344.96 317.542 1340.79 317.542C1336.89 317.542 1333.8 320.948 1333.8 325.206ZM1339.44 330.316H1337.29V320.664C1338.1 320.522 1339.31 320.38 1340.79 320.38C1342.54 320.38 1343.34 320.664 1343.88 321.09C1344.42 321.516 1344.82 322.226 1344.82 323.219C1344.82 324.355 1344.01 325.206 1342.94 325.49V325.632C1343.88 325.916 1344.28 326.768 1344.55 328.045C1344.82 329.464 1345.09 330.032 1345.22 330.458H1342.94C1342.67 330.174 1342.54 329.322 1342.27 328.045C1342.13 327.051 1341.6 326.484 1340.39 326.484H1339.44V330.316ZM1339.44 324.922H1340.39C1341.6 324.922 1342.54 324.497 1342.54 323.503C1342.54 322.651 1341.86 321.942 1340.52 321.942C1339.98 321.942 1339.58 321.942 1339.31 322.084V324.922H1339.44Z" fill="#233949"/>
<rect x="334" y="368.958" width="140" height="140" fill="#4345A5"/>
<rect x="491" y="368.969" width="140" height="140" fill="#E37C15"/>
<rect x="651" y="369.66" width="140" height="140" fill="#E88797"/>
<rect x="808" y="368.919" width="140" height="140" fill="#8C43A5"/>
<rect x="965" y="369.766" width="140" height="140" fill="#45AF37"/>
<rect x="1122" y="369.534" width="140" height="140" fill="#4345A5"/>
<rect x="1279" y="369.11" width="140" height="140" fill="#E37C15"/>
<rect x="1436" y="371.08" width="140" height="140" fill="#E88797"/>
<path d="M835.45 487V385.182H877.51C885.133 385.182 891.712 386.557 897.247 389.308C902.815 392.026 907.107 395.937 910.123 401.041C913.14 406.112 914.648 412.128 914.648 419.088C914.648 426.148 913.106 432.147 910.024 437.085C906.942 441.991 902.567 445.736 896.899 448.321C891.231 450.873 884.52 452.149 876.764 452.149H850.166V432.76H872.19C875.902 432.76 879.001 432.279 881.487 431.318C884.006 430.324 885.912 428.832 887.204 426.844C888.497 424.822 889.143 422.237 889.143 419.088C889.143 415.939 888.497 413.338 887.204 411.283C885.912 409.195 884.006 407.637 881.487 406.609C878.968 405.549 875.869 405.018 872.19 405.018H860.059V487H835.45ZM892.773 440.466L918.128 487H891.281L866.423 440.466H892.773Z" fill="white"/>
<path d="M1203.64 389.182V491H1179.03V389.182H1203.64Z" fill="white"/>
<path d="M1073.04 389.182V491H1052.16L1011.65 432.236H1011V491H986.39V389.182H1007.57L1047.64 447.847H1048.48V389.182H1073.04Z" fill="white"/>
<path d="M1392.94 385.182V487H1372.06L1331.54 428.236H1330.9V487H1306.29V385.182H1327.47L1367.54 443.847H1368.38V385.182H1392.94Z" fill="white"/>
<path d="M1526.23 418.442C1525.67 416.354 1524.84 414.514 1523.74 412.923C1522.65 411.299 1521.31 409.924 1519.72 408.797C1518.13 407.67 1516.3 406.825 1514.25 406.261C1512.19 405.665 1509.94 405.366 1507.49 405.366C1502.55 405.366 1498.27 406.56 1494.66 408.946C1491.08 411.332 1488.31 414.812 1486.36 419.386C1484.4 423.927 1483.42 429.446 1483.42 435.942C1483.42 442.471 1484.37 448.039 1486.26 452.646C1488.15 457.253 1490.88 460.767 1494.46 463.186C1498.04 465.606 1502.38 466.815 1507.49 466.815C1511.99 466.815 1515.81 466.086 1518.92 464.628C1522.07 463.136 1524.46 461.032 1526.08 458.314C1527.7 455.596 1528.52 452.398 1528.52 448.719L1533.09 449.266H1508.33V431.318H1552.23V444.791C1552.23 453.906 1550.29 461.711 1546.41 468.207C1542.57 474.704 1537.27 479.692 1530.5 483.172C1523.78 486.652 1516.04 488.392 1507.29 488.392C1497.58 488.392 1489.04 486.287 1481.68 482.078C1474.33 477.869 1468.59 471.87 1464.48 464.081C1460.37 456.259 1458.32 446.979 1458.32 436.24C1458.32 427.888 1459.56 420.48 1462.05 414.017C1464.53 407.521 1468 402.019 1472.44 397.511C1476.91 393.004 1482.08 389.59 1487.95 387.27C1493.85 384.95 1500.19 383.79 1506.99 383.79C1512.89 383.79 1518.37 384.635 1523.45 386.325C1528.55 388.016 1533.06 390.402 1536.97 393.484C1540.91 396.567 1544.11 400.229 1546.56 404.472C1549.02 408.714 1550.54 413.371 1551.14 418.442H1526.23Z" fill="white"/>
<path d="M698.176 487H671.728L706.081 385.182H738.844L773.198 487H746.749L722.835 410.835H722.04L698.176 487ZM694.647 446.929H749.931V465.622H694.647V446.929Z" fill="white"/>
<path d="M523.604 487V385.182H594.599V405.168H548.214V426.048H590.969V446.084H548.214V467.014H594.599V487H523.604Z" fill="white"/>
<path d="M369.6 490V380.909H395.967V468.587H441.351V490H369.6Z" fill="white"/>
<ellipse cx="1751.5" cy="135.5" rx="239.5" ry="208.5" fill="#F5EC0B"/>
<ellipse cx="1904.5" cy="299.5" rx="174.5" ry="44.5" fill="#FAF8F6"/>
<path fill-rule="evenodd" clip-rule="evenodd" d="M505.455 100.285C526.98 92.8343 540 83.1222 540 72.5C540 49.0279 476.424 30 398 30C319.576 30 256 49.0279 256 72.5C256 73.5903 256.137 74.6711 256.407 75.7408C192.488 82.4021 148 97.251 148 114.5C148 137.972 230.38 157 332 157C433.62 157 516 137.972 516 114.5C516 109.514 512.283 104.729 505.455 100.285Z" fill="#FFFBFB"/>
<rect x="87" y="516" width="59" height="318" fill="#66370B"/>
<ellipse cx="124" cy="405" rx="179" ry="194" fill="#2F9A14"/>
<ellipse cx="191.5" cy="526.5" rx="94.5" ry="77.5" fill="#58BC35"/>
<path d="M101 244.5C-68.5004 244.5 -51.5004 554.5 77.4996 554.5C53.9996 361 242 488 263.5 380.5C282.229 286.855 189.5 225 101 244.5Z" fill="#0D7C04" stroke="#0D7C04"/>
</g>
<defs>
<filter id="filter0_d_2001_2" x="-94.5" y="743.5" width="1848.73" height="372" filterUnits="userSpaceOnUse" color-interpolation-filters="sRGB">
<feFlood flood-opacity="0" result="BackgroundImageFix"/>
<feColorMatrix in="SourceAlpha" type="matrix" values="0 0 0 0 0 0 0 0 0 0 0 0 0 0 0 0 0 0 127 0" result="hardAlpha"/>
<feOffset dx="15" dy="4"/>
<feGaussianBlur stdDeviation="7.5"/>
<feComposite in2="hardAlpha" operator="out"/>
<feColorMatrix type="matrix" values="0 0 0 0 0 0 0 0 0 0 0 0 0 0 0 0 0 0 0.25 0"/>
<feBlend mode="normal" in2="BackgroundImageFix" result="effect1_dropShadow_2001_2"/>
<feBlend mode="normal" in="SourceGraphic" in2="effect1_dropShadow_2001_2" result="shape"/>
</filter>
<clipPath id="clip0_2001_2">
<rect width="1920" height="1080" fill="white"/>
</clipPath>
</defs>
</svg>
